<svg width="51" height="51" viewBox="0 0 51 51" fill="none" xmlns="http://www.w3.org/2000/svg">
<g clip-path="url(#clip0_7_977)">
<path d="M22.0581 5.4578L24.3373 3.12952C25.3024 2.14367 26.8629 2.14367 27.8177 3.12952L47.7762 23.5072C48.7413 24.4931 48.7413 26.0872 47.7762 27.0626L27.8177 47.4508C26.8526 48.4366 25.2921 48.4366 24.3373 47.4508L22.0581 45.1225C21.0827 44.1261 21.1033 42.5005 22.0992 41.5252L34.4705 29.4852H4.96401C3.59854 29.4852 2.5 28.363 2.5 26.9682V23.6121C2.5 22.2172 3.59854 21.095 4.96401 21.095H34.4705L22.0992 9.0551C21.093 8.07974 21.0725 6.45414 22.0581 5.4578Z" fill="#42494D"/>
</g>
<defs>
<clipPath id="clip0_7_977">
<rect width="46" height="45.8" fill="white" transform="translate(2.5 2.39014)"/>
</clipPath>
</defs>
</svg>
