<svg width="16" height="16" viewBox="0 0 16 16" fill="none" xmlns="http://www.w3.org/2000/svg">
<g clip-path="url(#clip0_5_854)">
<path d="M10.1428 5.67742C9.79189 3.51694 8.96431 2 8.00121 2C7.03811 2 6.21053 3.51694 5.85965 5.67742H10.1428ZM5.67816 8C5.67816 8.5371 5.7072 9.05242 5.75802 9.54839H10.242C10.2928 9.05242 10.3218 8.5371 10.3218 8C10.3218 7.4629 10.2928 6.94758 10.242 6.45161H5.75802C5.7072 6.94758 5.67816 7.4629 5.67816 8ZM13.5354 5.67742C12.8433 4.03468 11.4422 2.76452 9.71204 2.25161C10.3025 3.06935 10.709 4.30081 10.922 5.67742H13.5354ZM6.28796 2.25161C4.56019 2.76452 3.15668 4.03468 2.46703 5.67742H5.08046C5.29099 4.30081 5.69752 3.06935 6.28796 2.25161ZM13.7943 6.45161H11.0188C11.0696 6.95968 11.0986 7.47984 11.0986 8C11.0986 8.52016 11.0696 9.04032 11.0188 9.54839H13.7919C13.925 9.05242 14 8.5371 14 8C14 7.4629 13.925 6.94758 13.7943 6.45161ZM4.90381 8C4.90381 7.47984 4.93285 6.95968 4.98367 6.45161H2.20811C2.07743 6.94758 2 7.4629 2 8C2 8.5371 2.07743 9.05242 2.20811 9.54839H4.98125C4.93285 9.04032 4.90381 8.52016 4.90381 8ZM5.85965 10.3226C6.21053 12.4831 7.03811 14 8.00121 14C8.96431 14 9.79189 12.4831 10.1428 10.3226H5.85965ZM9.71446 13.7484C11.4422 13.2355 12.8457 11.9653 13.5378 10.3226H10.9244C10.7114 11.6992 10.3049 12.9306 9.71446 13.7484ZM2.46703 10.3226C3.1591 11.9653 4.56019 13.2355 6.29038 13.7484C5.69994 12.9306 5.29341 11.6992 5.08046 10.3226H2.46703Z" fill="#B3B6B8"/>
</g>
<defs>
<clipPath id="clip0_5_854">
<rect width="12" height="12" fill="white" transform="translate(2 2)"/>
</clipPath>
</defs>
</svg>
